<svg xmlns="http://www.w3.org/2000/svg" width="1200" height="760" viewBox="0 0 1200 760" role="img" aria-labelledby="t d">
<title id="t">Discord Architect project graphic</title><desc id="d">A clean server architecture diagram with connected cards.</desc>
<defs><linearGradient id="bg" x1="0" y1="0" x2="1" y2="1"><stop stop-color="#eef2ff"/><stop offset="1" stop-color="#f8fafc"/></linearGradient><linearGradient id="g" x1="0" y1="0" x2="1" y2="1"><stop stop-color="#4f46e5"/><stop offset="1" stop-color="#7c3aed"/></linearGradient><filter id="s" x="-20%" y="-20%" width="140%" height="140%"><feDropShadow dx="0" dy="20" stdDeviation="22" flood-color="#312e81" flood-opacity=".14"/></filter></defs>
<rect width="1200" height="760" rx="48" fill="url(#bg)"/><circle cx="1020" cy="110" r="170" fill="#ddd6fe" opacity=".55"/><circle cx="126" cy="690" r="220" fill="#dbeafe" opacity=".65"/>
<path d="M600 243V350M600 350H325V455M600 350H600V455M600 350H875V455" fill="none" stroke="#a5b4fc" stroke-width="12" stroke-linecap="round" stroke-linejoin="round"/>
<g filter="url(#s)"><rect x="438" y="118" width="324" height="142" rx="34" fill="url(#g)"/><circle cx="510" cy="189" r="36" fill="#fff" opacity=".2"/><path d="M493 190h34M510 173v34" stroke="#fff" stroke-width="10" stroke-linecap="round"/><rect x="568" y="164" width="142" height="18" rx="9" fill="#fff"/><rect x="568" y="196" width="103" height="13" rx="7" fill="#c7d2fe"/></g>
<g filter="url(#s)" fill="#fff"><rect x="180" y="444" width="290" height="166" rx="34"/><rect x="455" y="444" width="290" height="166" rx="34"/><rect x="730" y="444" width="290" height="166" rx="34"/></g>
<g fill="#4f46e5"><rect x="220" y="486" width="62" height="62" rx="18"/><rect x="495" y="486" width="62" height="62" rx="18"/><rect x="770" y="486" width="62" height="62" rx="18"/></g>
<g fill="#c7d2fe"><rect x="304" y="491" width="118" height="16" rx="8"/><rect x="304" y="521" width="88" height="12" rx="6"/><rect x="579" y="491" width="118" height="16" rx="8"/><rect x="579" y="521" width="88" height="12" rx="6"/><rect x="854" y="491" width="118" height="16" rx="8"/><rect x="854" y="521" width="88" height="12" rx="6"/></g>
</svg>